<?xml version="1.0" encoding="utf-8"?>
<!-- Generator: Adobe Illustrator 16.0.0, SVG Export Plug-In . SVG Version: 6.00 Build 0)  -->
<!DOCTYPE svg PUBLIC "-//W3C//DTD SVG 1.1//EN" "http://www.w3.org/Graphics/SVG/1.1/DTD/svg11.dtd">
<svg version="1.1" id="Layer_1" xmlns="http://www.w3.org/2000/svg" xmlns:xlink="http://www.w3.org/1999/xlink" x="0px" y="0px"
	 width="70.25px" height="29px" viewBox="0 0 70.25 29" enable-background="new 0 0 70.25 29" xml:space="preserve">
<linearGradient id="SVGID_1_" gradientUnits="userSpaceOnUse" x1="1.5229" y1="1.979" x2="27.1899" y2="27.396">
	<stop  offset="0" style="stop-color:#00E490"/>
	<stop  offset="0.0453" style="stop-color:#00DF95"/>
	<stop  offset="0.4615" style="stop-color:#00B9BB"/>
	<stop  offset="0.7942" style="stop-color:#00A2D3"/>
	<stop  offset="1" style="stop-color:#0099DC"/>
</linearGradient>
<path fill="url(#SVGID_1_)" d="M27.584,25.917c0,1.104-0.896,2-2,2H2.833c-1.104,0-2-0.896-2-2V3.166c0-1.104,0.896-2,2-2h22.75
	c1.104,0,2,0.896,2,2V25.917z"/>
<g>
	<path fill="#262E30" d="M32.918,12.127h1.161v1.239h0.028c0.481-0.863,1.239-1.31,2.421-1.31c1.678,0,2.648,1.076,2.648,2.811
		v4.893h-1.232v-4.68c0-1.246-0.581-1.926-1.784-1.926c-1.253,0-2.011,0.863-2.011,2.174v4.432h-1.232V12.127z"/>
	<path fill="#262E30" d="M42.281,19.759V10.69h-3.293V9.542h7.859v1.147h-3.292v9.069H42.281z"/>
	<path fill="#262E30" d="M46.906,12.127h1.162v1.239h0.027c0.227-0.8,0.956-1.31,1.849-1.31c0.22,0,0.403,0.021,0.51,0.042v1.21
		c-0.1-0.035-0.368-0.07-0.673-0.07c-0.991,0-1.643,0.722-1.643,1.798v4.723h-1.232V12.127z"/>
	<path fill="#262E30" d="M57.726,19.759h-1.161V18.5h-0.028c-0.475,0.877-1.26,1.33-2.428,1.33c-1.672,0-2.642-1.076-2.642-2.811
		v-4.892H52.7v4.68c0,1.253,0.587,1.926,1.784,1.926c1.253,0,2.011-0.864,2.011-2.174v-4.432h1.231V19.759z"/>
	<path fill="#262E30" d="M62.097,12.063c1.551,0,2.726,0.928,2.775,2.181H63.69c-0.078-0.715-0.701-1.161-1.636-1.161
		c-0.941,0-1.571,0.446-1.571,1.112c0,0.517,0.41,0.864,1.288,1.083l1.161,0.29c1.544,0.39,2.096,0.928,2.096,2.039
		c0,1.303-1.253,2.223-3.016,2.223c-1.643,0-2.832-0.892-2.952-2.216h1.238c0.128,0.779,0.758,1.196,1.799,1.196
		s1.691-0.432,1.691-1.118c0-0.538-0.318-0.821-1.189-1.048l-1.338-0.347c-1.338-0.347-1.989-1.02-1.989-2.039
		C59.272,12.969,60.44,12.063,62.097,12.063z"/>
	<path fill="#262E30" d="M68.004,10.407v1.72h1.487v1.02h-1.487v4.581c0,0.701,0.298,1.02,0.949,1.02
		c0.148,0,0.446-0.021,0.53-0.035v1.041c-0.148,0.035-0.502,0.063-0.793,0.063c-1.38,0-1.918-0.573-1.918-2.039v-4.63H65.71v-1.02
		h1.063v-1.72H68.004z"/>
</g>
<path fill="#FFFFFF" d="M11.558,10.81h5.144v11.348h4.858V9.73c0-2.087-1.692-3.778-3.779-3.778H6.699v16.206h4.858V10.81z"/>
</svg>
